# xmcd
#
# Track frame offsets: 
#        150
#        16402
#        37276
#        59882
#        74340
#        100651
#        118327
#        139332
#        162690
#        173678
#        193043
#        214349
#
# Disc length: 2966 seconds
#
# Revision: 0
# Processed by: cddbd v1.5.2PL0 Copyright (c) Steve Scherf et al.
# Submitted via: ExactAudioCopyFreeDBPlugin 1.0
#
DISCID=c30b940c
DTITLE=Kenny Parker - Yes Indeed!
DYEAR=2014
DGENRE=Blues
TTITLE0=Yes Indeed!
TTITLE1=Tight Black Sweater
TTITLE2=Look Before You Leap
TTITLE3=Cuban Gateway
TTITLE4=Valentines Day
TTITLE5=Shake That Thing
TTITLE6=Spellbound
TTITLE7=Can't Hold Out
TTITLE8=Okie Dokie Stomp
TTITLE9=Wig Hat
TTITLE10=I'm Gonna Make You Mine
TTITLE11=You'll Never Walk Alone
EXTD=
EXTT0=
EXTT1=
EXTT2=
EXTT3=
EXTT4=
EXTT5=
EXTT6=
EXTT7=
EXTT8=
EXTT9=
EXTT10=
EXTT11=
PLAYORDER=
